<svg xmlns="http://www.w3.org/2000/svg" viewBox="0 0 512 512">
  <defs>
    <linearGradient id="bg" x1="0%" y1="0%" x2="100%" y2="100%">
      <stop offset="0%" style="stop-color:#2563eb"/>
      <stop offset="100%" style="stop-color:#1d4ed8"/>
    </linearGradient>
  </defs>
  <!-- Background -->
  <rect width="512" height="512" rx="96" fill="url(#bg)"/>
  <!-- Document icon -->
  <path d="M160 96h128l80 80v240c0 17.7-14.3 32-32 32H160c-17.7 0-32-14.3-32-32V128c0-17.7 14.3-32 32-32z" fill="white" opacity="0.95"/>
  <path d="M288 96v80h80" fill="none" stroke="white" stroke-width="8" stroke-linecap="round"/>
  <!-- Lines representing text -->
  <rect x="160" y="220" width="144" height="16" rx="4" fill="#2563eb" opacity="0.3"/>
  <rect x="160" y="256" width="176" height="16" rx="4" fill="#2563eb" opacity="0.3"/>
  <rect x="160" y="292" width="120" height="16" rx="4" fill="#2563eb" opacity="0.3"/>
  <!-- Checkmark -->
  <circle cx="368" cy="368" r="64" fill="#22c55e"/>
  <path d="M336 368l24 24 48-48" fill="none" stroke="white" stroke-width="12" stroke-linecap="round" stroke-linejoin="round"/>
</svg>

